HIERARCHY
ROOT joint_Root
{
	OFFSET 0.0 0.0 0.0
	CHANNELS 6 Xposition Yposition Zposition Zrotation Xrotation Yrotation 
	JOINT Hips
	{
		OFFSET 4.5925 91.4895 -427.239
		CHANNELS 6 Xposition Yposition Zposition Zrotation Xrotation Yrotation 
		JOINT Spine
		{
			OFFSET 15.7357 0.0 0.0
			CHANNELS 6 Xposition Yposition Zposition Zrotation Xrotation Yrotation 
			JOINT Chest
			{
				OFFSET 8.98455 -0.406207 0.0
				CHANNELS 6 Xposition Yposition Zposition Zrotation Xrotation Yrotation 
				JOINT Neck
				{
					OFFSET 16.3773 0.0 0.0
					CHANNELS 6 Xposition Yposition Zposition Zrotation Xrotation Yrotation 
					JOINT Head
					{
						OFFSET 6.45672 0.0 0.0
						CHANNELS 6 Xposition Yposition Zposition Zrotation Xrotation Yrotation 
						End Site
						{
							OFFSET 0.0 0.0 0.0
						}
					}
				}
				JOINT Shoulder_L
				{
					OFFSET 12.9942 -0.242716 4.98039
					CHANNELS 6 Xposition Yposition Zposition Zrotation Xrotation Yrotation 
					JOINT UpperArm_L
					{
						OFFSET 5.34809 0.0 0.0
						CHANNELS 6 Xposition Yposition Zposition Zrotation Xrotation Yrotation 
						JOINT LowerArm_L
						{
							OFFSET 24.3286 1.87007e-05 0.0
							CHANNELS 6 Xposition Yposition Zposition Zrotation Xrotation Yrotation 
							JOINT Hand_L
							{
								OFFSET 22.2916 0.0 0.0
								CHANNELS 6 Xposition Yposition Zposition Zrotation Xrotation Yrotation 
								End Site
								{
									OFFSET 0.0 0.0 0.0
								}
							}
						}
					}
				}
				JOINT Shoulder_R
				{
					OFFSET 12.9945 -0.242716 -4.98039
					CHANNELS 6 Xposition Yposition Zposition Zrotation Xrotation Yrotation 
					JOINT UpperArm_R
					{
						OFFSET -5.34813 0.0 0.0
						CHANNELS 6 Xposition Yposition Zposition Zrotation Xrotation Yrotation 
						JOINT LowerArm_R
						{
							OFFSET -24.3289 0.000322201 0.0
							CHANNELS 6 Xposition Yposition Zposition Zrotation Xrotation Yrotation 
							JOINT Hand_R
							{
								OFFSET -22.2915 -0.000108084 0.0
								CHANNELS 6 Xposition Yposition Zposition Zrotation Xrotation Yrotation 
								End Site
								{
									OFFSET 0.0 0.0 0.0
								}
							}
						}
					}
				}
			}
		}
		JOINT UpperLeg_L
		{
			OFFSET -2.19248 -6.46944 0.0
			CHANNELS 6 Xposition Yposition Zposition Zrotation Xrotation Yrotation 
			JOINT LowerLeg_L
			{
				OFFSET 39.0811 0.0 -1.23785e-05
				CHANNELS 6 Xposition Yposition Zposition Zrotation Xrotation Yrotation 
				JOINT Foot_L
				{
					OFFSET 40.9854 0.0 -1.26872e-05
					CHANNELS 6 Xposition Yposition Zposition Zrotation Xrotation Yrotation 
					JOINT Toes_L
					{
						OFFSET 11.7543 0.0 0.0
						CHANNELS 6 Xposition Yposition Zposition Zrotation Xrotation Yrotation 
						End Site
						{
							OFFSET 0.0 0.0 0.0
						}
					}
				}
			}
		}
		JOINT UpperLeg_R
		{
			OFFSET -2.19251 6.46944 0.0
			CHANNELS 6 Xposition Yposition Zposition Zrotation Xrotation Yrotation 
			JOINT LowerLeg_R
			{
				OFFSET -39.0811 -0.00228153 -0.0401928
				CHANNELS 6 Xposition Yposition Zposition Zrotation Xrotation Yrotation 
				JOINT Foot_R
				{
					OFFSET -40.9854 0.0 0.0
					CHANNELS 6 Xposition Yposition Zposition Zrotation Xrotation Yrotation 
					JOINT Toes_R
					{
						OFFSET -11.7543 0.0 0.0
						CHANNELS 6 Xposition Yposition Zposition Zrotation Xrotation Yrotation 
						End Site
						{
							OFFSET 0.0 0.0 0.0
						}
					}
				}
			}
		}
	}
}
MOTION
Frames:	6
Frame Time:	0.0333333
0.000000 0.000000 0.000000 0.000000 0.000000 -0.000000 -1.184640 87.417900 48.055500 -90.355400 1.852310 -177.319000 15.735700 0.000005 -0.000001 76.411300 83.205300 -75.966200 8.984550 -0.406207 -0.000000 5.462190 -3.194440 1.041740 16.377300 -0.000001 -0.000001 -3.182560 -2.629010 0.422096 6.456720 -0.000001 -0.000000 -6.164180 -0.605811 1.115040 12.994200 -0.242716 4.980390 -90.471300 1.889570 -75.993900 5.348090 -0.000007 -0.000001 -60.473400 27.418900 -22.025300 24.328600 0.000019 0.000005 5.450190 2.220780 -67.910800 22.291600 -0.000001 0.000005 17.610800 5.492300 -6.227100 12.994500 -0.242716 -4.980390 88.458200 9.863960 -81.070300 -5.348130 -0.000001 -0.000004 -61.330100 27.383100 -0.143204 -24.328900 0.000322 -0.000009 -22.698900 -5.937830 -76.108200 -22.291500 -0.000108 -0.000004 27.541400 5.650170 -15.034100 -2.192480 -6.469440 -0.000000 -177.407000 -3.768870 -11.329000 39.081100 -0.000007 -0.000012 0.058561 -0.020266 70.905700 40.985400 -0.000006 -0.000013 -1.171470 0.114859 -49.344200 11.754300 -0.000000 0.000003 -0.005737 -0.068440 -19.362000 -2.192510 6.469440 -0.000001 -175.760000 12.437300 152.852000 -39.081100 -0.002282 -0.040193 -0.321792 0.333651 44.253100 -40.985400 0.000008 0.000006 6.118970 -0.435869 -65.775300 -11.754300 -0.000006 -0.000006 -0.010119 -0.104522 -20.831800
0.000000 0.000000 0.000000 0.000000 0.000000 -0.000000 -1.134450 85.900600 42.633600 -90.118500 3.500300 -176.257000 15.735700 0.000005 -0.000001 83.637600 82.624700 -82.998400 8.984550 -0.406207 -0.000000 6.905380 -1.633940 1.375800 16.377300 -0.000001 -0.000001 -3.704370 -2.174720 0.762506 6.456720 -0.000001 -0.000000 -6.568680 -0.557480 0.454682 12.994200 -0.242716 4.980390 -90.791100 3.117680 -75.754500 5.348090 -0.000007 -0.000001 -61.851500 29.713200 -15.391400 24.328600 0.000019 0.000005 6.621460 3.654100 -61.229700 22.291600 -0.000001 0.000005 18.326400 5.502790 -6.646200 12.994500 -0.242716 -4.980390 88.510800 10.937500 -82.197700 -5.348130 -0.000001 -0.000004 -54.158300 25.063100 -12.924200 -24.328900 0.000322 -0.000009 -22.457200 -3.457320 -81.698400 -22.291500 -0.000108 -0.000004 29.751800 5.647550 -14.787400 -2.192480 -6.469440 -0.000000 -176.869000 -5.214890 -17.297400 39.081100 -0.000007 -0.000012 0.053772 -0.010269 79.181100 40.985400 -0.000006 -0.000013 2.713130 -2.227580 -53.470200 11.754300 -0.000000 0.000003 -0.004934 -0.060831 -19.051800 -2.192510 6.469440 -0.000001 -175.979000 9.630280 154.378000 -39.081100 -0.002282 -0.040193 -0.182271 0.148344 51.352800 -40.985400 0.000008 0.000006 8.845980 -3.063090 -72.948500 -11.754300 -0.000006 -0.000006 -0.002405 -0.033677 -17.942600
0.000000 0.000000 0.000000 0.000000 0.000000 -0.000000 -0.951859 85.026300 37.508000 -89.730100 3.372040 -176.122000 15.735700 0.000005 -0.000001 85.414700 82.266600 -84.506200 8.984550 -0.406207 -0.000000 7.663090 -1.232360 1.897800 16.377300 -0.000001 -0.000001 -3.930050 -2.434230 1.016070 6.456720 -0.000001 -0.000000 -6.855980 -0.778639 -0.016927 12.994200 -0.242716 4.980390 -90.999200 3.915610 -75.673100 5.348090 -0.000007 -0.000001 -64.747100 30.631800 -6.269920 24.328600 0.000019 0.000005 4.833390 3.195220 -56.603500 22.291600 -0.000001 0.000005 18.162000 5.493190 -6.260560 12.994500 -0.242716 -4.980390 88.625200 11.112100 -82.902200 -5.348130 -0.000001 -0.000004 -49.229100 20.967600 -26.197700 -24.328900 0.000322 -0.000009 -21.975600 -1.904730 -85.291100 -22.291500 -0.000108 -0.000004 30.110900 5.644970 -14.554600 -2.192480 -6.469440 -0.000000 -176.451000 -4.945710 -24.312200 39.081100 -0.000007 -0.000012 0.029323 -0.003803 82.594900 40.985400 -0.000006 -0.000013 4.784840 -3.522910 -57.112900 11.754300 -0.000000 0.000003 -0.004518 -0.056733 -18.884800 -2.192510 6.469440 -0.000001 -176.390000 12.098900 157.157000 -39.081100 -0.002282 -0.040193 -0.123831 0.091125 54.352800 -40.985400 0.000008 0.000006 9.844130 -2.018950 -78.737000 -11.754300 -0.000006 -0.000006 -0.000538 -0.008610 -16.923500
0.000000 0.000000 0.000000 0.000000 0.000000 -0.000000 -1.065200 85.059300 32.329600 -90.071500 4.440120 -176.753000 15.735700 0.000005 -0.000001 90.760500 82.360300 -89.973300 8.984550 -0.406207 -0.000000 7.511150 0.200262 1.559650 16.377300 -0.000001 -0.000001 -3.872420 -2.787990 1.498250 6.456720 -0.000001 -0.000000 -6.710100 -1.608040 -0.209162 12.994200 -0.242716 4.980390 -91.056900 3.933480 -74.947400 5.348090 -0.000007 -0.000001 -67.841500 31.919100 2.952510 24.328600 0.000019 0.000005 3.011000 2.107820 -55.038400 22.291600 -0.000001 0.000005 17.865800 5.484490 -5.921100 12.994500 -0.242716 -4.980390 88.908100 10.083500 -83.787400 -5.348130 -0.000001 -0.000004 -48.665500 16.144400 -35.952800 -24.328900 0.000322 -0.000009 -20.227300 -0.883314 -87.604400 -22.291500 -0.000108 -0.000004 29.427200 5.648660 -14.890800 -2.192480 -6.469440 -0.000000 -177.195000 -6.560680 -30.014100 39.081100 -0.000007 -0.000012 0.047149 -0.008684 79.554900 40.985400 -0.000006 -0.000013 4.785650 -3.755950 -60.521600 11.754300 -0.000000 0.000003 -0.004125 -0.052738 -18.722100 -2.192510 6.469440 -0.000001 -177.705000 12.404600 160.948000 -39.081100 -0.002282 -0.040193 0.074859 -0.052522 53.748400 -40.985400 0.000008 0.000006 10.613900 -1.481770 -82.415300 -11.754300 -0.000006 -0.000006 -0.011435 -0.017210 -16.725200
0.000000 0.000000 0.000000 0.000000 0.000000 -0.000000 -1.350940 86.038100 26.984900 -90.719200 5.678130 -177.732000 15.735700 0.000005 -0.000001 97.457600 82.623000 -97.080000 8.984550 -0.406207 -0.000000 6.859940 1.905620 0.640143 16.377300 -0.000001 -0.000001 -3.716230 -2.952880 2.048120 6.456720 -0.000001 -0.000000 -6.441100 -2.855940 0.117520 12.994200 -0.242716 4.980390 -90.878500 3.034510 -73.845700 5.348090 -0.000007 -0.000001 -71.174800 32.768400 11.647400 24.328600 0.000019 0.000005 0.964663 0.647412 -56.150700 22.291600 -0.000001 0.000005 17.493100 5.485100 -5.945570 12.994500 -0.242716 -4.980390 89.192600 8.383240 -84.478800 -5.348130 -0.000001 -0.000004 -50.926700 12.642900 -41.791000 -24.328900 0.000322 -0.000009 -18.142900 -0.290839 -89.111900 -22.291500 -0.000108 -0.000004 29.719800 5.655280 -15.539600 -2.192480 -6.469440 -0.000000 -178.883000 -8.612270 -33.262100 39.081100 -0.000007 -0.000012 0.053453 -0.019327 70.115700 40.985400 -0.000006 -0.000013 4.155690 -3.768620 -62.778800 11.754300 -0.000000 0.000003 -0.004244 -0.053967 -18.772100 -2.192510 6.469440 -0.000001 -179.782000 11.909700 165.857000 -39.081100 -0.002282 -0.040193 0.051648 -0.040971 49.751400 -40.985400 0.000008 0.000006 9.646810 -0.019945 -82.883100 -11.754300 -0.000006 -0.000006 -0.741516 -0.906918 -17.597500
0.000000 0.000000 0.000000 0.000000 0.000000 -0.000000 -1.592080 87.438400 21.351800 -91.161400 5.359320 -178.552000 15.735700 0.000005 -0.000001 102.224000 82.906200 -102.235000 8.984550 -0.406207 -0.000000 6.106610 2.995890 -0.181080 16.377300 -0.000001 -0.000001 -3.546920 -3.537400 2.439290 6.456720 -0.000001 -0.000000 -6.117030 -4.074010 0.623182 12.994200 -0.242716 4.980390 -90.418900 1.434500 -73.720300 5.348090 -0.000007 -0.000001 -74.687100 30.638800 19.207200 24.328600 0.000019 0.000005 0.466580 0.293343 -57.833500 22.291600 -0.000001 0.000005 15.905800 5.493920 -6.291610 12.994500 -0.242716 -4.980390 89.305200 6.776440 -84.132000 -5.348130 -0.000001 -0.000004 -53.057100 11.469000 -43.829300 -24.328900 0.000322 -0.000009 -19.447600 0.091323 -90.257000 -22.291500 -0.000108 -0.000004 31.576100 5.656690 -15.690500 -2.192480 -6.469440 -0.000000 179.295000 -9.467950 -33.614800 39.081100 -0.000007 -0.000012 0.031193 -0.021428 55.507200 40.985400 -0.000006 -0.000013 2.448620 -4.008830 -63.353400 11.754300 -0.000000 0.000003 -0.004665 -0.058193 -18.944300 -2.192510 6.469440 -0.000001 178.493000 11.443900 171.094000 -39.081100 -0.002282 -0.040193 0.029500 -0.026392 44.828900 -40.985400 0.000008 0.000006 8.649610 0.742547 -78.791700 -11.754300 -0.000006 -0.000006 -1.735540 -1.942680 -21.744400
